<svg width="1500" height="252" viewBox="0 0 1728 252" fill="none" xmlns="http://www.w3.org/2000/svg">
<g id="ScrappLine">
<path id="brown" d="M20.6874 70.4843C20.12 82.1977 16.4883 93.5871 14.1909 105.013C10.7833 121.959 17.1262 108.829 22.9293 100.092C35.353 81.3873 48.6395 64.1263 64.9258 48.6694C67.885 45.8609 66.4872 54.2945 66.5119 55.1661C67.0699 74.833 66.0929 94.8873 67.7275 114.474C69.5691 136.543 86.9943 113.504 93.4377 106.619C104.895 94.3754 115.882 81.6018 126.111 68.3107C139.582 50.8067 124.506 95.7182 123.497 99.6916C119.333 116.079 116.237 132.398 115.676 149.327C115.49 154.968 114.608 161.278 120.511 155.03C140.27 134.117 157.887 111.225 176.35 89.197C179.714 85.1837 185.637 72.0659 186.524 77.2267C187.63 83.6607 185.156 90.2138 184.272 96.6821C183.21 104.459 178.776 135.621 177.893 143.589C175.581 164.456 178.874 158.226 188.778 148.421C201.575 135.749 214.232 122.948 226.943 110.19C236.338 100.761 245.605 90.8719 255.582 82.0426C260.422 77.7593 263.056 77.6936 261.504 84.9118C258.55 98.6504 254.202 112.03 251.451 125.849C250.635 129.951 241.188 170.141 251.854 164.737C260.866 160.172 360.349 83.6105 361.021 84.5412C365.324 90.4983 360.065 99.2521 358.605 106.454C356.873 115.001 353.277 130.648 351.369 139.602C349.912 146.435 347.138 155.171 347.342 162.378C347.352 162.701 355.732 152.912 355.832 152.792C364.402 142.478 372.38 131.717 380.753 121.246C389.031 110.894 397.536 100.696 406.408 90.8464C412.276 84.3309 415.396 82.0843 413.12 92.7586C407.32 119.97 396.123 146.903 394.189 174.833C393.67 182.327 397.385 180.48 401.952 176.716C413.343 167.326 423.78 156.675 434.987 147.042C448.032 135.828 460.816 124.351 473.738 113C475.257 111.665 495.742 90.0519 496.318 101.846C496.98 115.417 493.419 130.525 491.2 143.811C490.734 146.603 482.059 182.079 490.2 174.445C499.748 165.493 506.863 153.478 515.255 143.479C526.725 129.814 539.016 116.847 550.799 103.454C553.18 100.749 563.323 85.4594 568.275 85.319C574.685 85.1371 566.6 98.0952 564.722 104.227C557.674 127.246 543.442 151.735 541.291 175.916C540.837 181.018 549.887 170.184 553.405 166.461C578.515 139.884 602.636 112.429 628.829 86.8716C636.38 79.5042 645.185 69.3477 642.083 84.6265C639.215 98.7489 634.084 112.391 630.416 126.31C626.889 139.692 622.685 155.033 623.217 169.036C623.688 181.42 644.678 156.147 653.442 147.385C675.948 124.884 697.909 101.855 719.233 78.232C725.812 70.9441 732.347 60.7107 740.055 54.5116C740.87 53.8558 736.961 74.4192 736.889 74.6938C730.668 98.355 721.517 121.11 715.045 144.702C714.471 146.796 707.387 178.096 710.42 175.206C731.929 154.714 748.256 126.615 766.434 103.176C772.853 94.9001 779.259 85.2959 786.862 77.9485C793.478 71.5547 788.118 94.2306 787.936 95.2068C782.473 124.439 768.985 154.235 768.262 184.078C768.15 188.702 768.802 186.339 771.05 183.532C783.708 167.726 795.806 151.417 809.431 136.417C813.792 131.616 872.749 72.0515 873.773 73.847C877.067 79.6211 870.9 97.3759 869.689 102.816C866.038 119.221 861.67 135.496 857.057 151.654C851.344 171.662 865.75 157.062 875.116 149.973C893.796 135.835 911.958 121.06 931.64 108.301C939.426 103.254 950 94.5716 959.217 92.099C963.435 90.9672 954.504 117.769 954.029 119.231C945.649 145.011 932.439 174.547 932.783 202.072C932.867 208.819 937.63 199.142 938.279 198.178C945.612 187.295 953.19 176.617 961.203 166.221C978.374 143.943 994.524 120.445 1012.56 98.8794C1020.59 89.2825 1016.37 102.614 1015.64 108.605C1013.92 122.776 1008.64 179.689 1039.06 160.04C1055.7 149.296 1069.29 130.733 1083.16 116.735C1090.61 109.21 1098.67 102.014 1105.64 94.0187C1108.38 90.8737 1104.93 102.349 1104.12 106.444C1100.65 124.244 1095.76 141.694 1091.73 159.363C1089.16 170.586 1085.3 183.89 1086.45 195.609C1087.07 202.041 1099.27 187.083 1099.4 186.948C1126.63 158.582 1152.03 128.04 1185.91 107.044C1194.93 101.458 1184.06 146.673 1183.19 151.044C1182.75 153.271 1174.26 177.351 1183.55 172.061C1201.77 161.691 1217.69 145.733 1233.83 132.552C1246.58 122.136 1259.54 111.425 1274.13 103.606C1280.65 100.109 1281.16 102.421 1280.36 109.037C1278.27 126.205 1274.99 143.186 1273.17 160.406C1272.89 163.057 1266.69 198.165 1276.41 192.205C1290.35 183.651 1302.43 170.302 1314.74 159.694C1332.02 144.802 1349.83 130.635 1368.08 116.944C1377.92 109.555 1387.94 101.262 1398.77 95.2803C1405.81 91.3891 1402.04 107.978 1401.87 109.911C1400.14 129.778 1397.36 149.535 1395.85 169.424C1394.86 182.468 1395.15 190.877 1410.82 190.611C1429.89 190.286 1441.7 176.76 1454.35 164.377C1469.33 149.716 1483.68 134.557 1498.4 119.671C1505.42 112.579 1505.44 116.351 1503.67 124.194C1499.36 143.305 1493.38 162.007 1489.17 181.145C1485.78 196.527 1481.54 211.934 1499.08 192.779C1518.56 171.493 1537.47 149.403 1555.86 127.153C1558.47 123.985 1561.48 116.816 1561.37 123.726C1561.17 135.869 1558.51 147.815 1557.02 159.828C1556.43 164.542 1548.65 199.145 1563.09 192.832C1584.17 183.622 1600.99 160.215 1616.13 143.549C1617.28 142.287 1632.89 124.514 1632.65 128.829C1631.36 152.412 1619.84 174.772 1615.45 197.771C1610.6 223.215 1637.87 178.615 1641.18 174.145C1652.24 159.226 1663.13 144.183 1675.09 129.961C1678.46 125.946 1685.24 112.771 1685.43 123.943C1685.64 136.028 1683.94 148.008 1682.72 160C1681.69 170.023 1677.23 186.918 1681.42 196.717C1687.28 210.414 1730.46 147.307 1734.08 142.188C1736.86 138.251 1745.25 122.434 1751.01 121.499C1754.65 120.908 1749.85 142.079 1749.84 142.091C1745.91 162.128 1743.01 182.312 1740.23 202.524" stroke="#A66427" stroke-width="73" stroke-linecap="round"/>
<path id="white" d="M20.6874 70.4843C20.12 82.1977 16.4883 93.5871 14.1909 105.013C10.7833 121.959 17.1262 108.829 22.9293 100.092C35.353 81.3873 48.6395 64.1263 64.9258 48.6694C67.885 45.8609 66.4872 54.2945 66.5119 55.1661C67.0699 74.833 66.0929 94.8873 67.7275 114.474C69.5691 136.543 86.9943 113.504 93.4377 106.619C104.895 94.3754 115.882 81.6018 126.111 68.3107C139.582 50.8067 124.506 95.7182 123.497 99.6916C119.333 116.079 116.237 132.398 115.676 149.327C115.49 154.968 114.608 161.278 120.511 155.03C140.27 134.117 157.887 111.225 176.35 89.197C179.714 85.1837 185.637 72.0659 186.524 77.2267C187.63 83.6607 185.156 90.2138 184.272 96.6821C183.21 104.459 178.776 135.621 177.893 143.589C175.581 164.456 178.874 158.226 188.778 148.421C201.575 135.749 214.232 122.948 226.943 110.19C236.338 100.761 245.605 90.8719 255.582 82.0426C260.422 77.7593 263.056 77.6936 261.504 84.9118C258.55 98.6504 254.202 112.03 251.451 125.849C250.635 129.951 241.188 170.141 251.854 164.737C260.866 160.172 360.349 83.6105 361.021 84.5412C365.324 90.4983 360.065 99.2521 358.605 106.454C356.873 115.001 353.277 130.648 351.369 139.602C349.912 146.435 347.138 155.171 347.342 162.378C347.352 162.701 355.732 152.912 355.832 152.792C364.402 142.478 372.38 131.717 380.753 121.246C389.031 110.894 397.536 100.696 406.408 90.8464C412.276 84.3309 415.396 82.0843 413.12 92.7586C407.32 119.97 396.123 146.903 394.189 174.833C393.67 182.327 397.385 180.48 401.952 176.716C413.343 167.326 423.78 156.675 434.987 147.042C448.032 135.828 460.816 124.351 473.738 113C475.257 111.665 495.742 90.0519 496.318 101.846C496.98 115.417 493.419 130.525 491.2 143.811C490.734 146.603 482.059 182.079 490.2 174.445C499.748 165.493 506.863 153.478 515.255 143.479C526.725 129.814 539.016 116.847 550.799 103.454C553.18 100.749 563.323 85.4594 568.275 85.319C574.685 85.1371 566.6 98.0952 564.722 104.227C557.674 127.246 543.442 151.735 541.291 175.916C540.837 181.018 549.887 170.184 553.405 166.461C578.515 139.884 602.636 112.429 628.829 86.8716C636.38 79.5042 645.185 69.3477 642.083 84.6265C639.215 98.7489 634.084 112.391 630.416 126.31C626.889 139.692 622.685 155.033 623.217 169.036C623.688 181.42 644.678 156.147 653.442 147.385C675.948 124.884 697.909 101.855 719.233 78.232C725.812 70.9441 732.347 60.7107 740.055 54.5116C740.87 53.8558 736.961 74.4192 736.889 74.6938C730.668 98.355 721.517 121.11 715.045 144.702C714.471 146.796 707.387 178.096 710.42 175.206C731.929 154.714 748.256 126.615 766.434 103.176C772.853 94.9001 779.259 85.2959 786.862 77.9485C793.478 71.5547 788.118 94.2306 787.936 95.2068C782.473 124.439 768.985 154.235 768.262 184.078C768.15 188.702 768.802 186.339 771.05 183.532C783.708 167.726 795.806 151.417 809.431 136.417C813.792 131.616 872.749 72.0515 873.773 73.847C877.067 79.6211 870.9 97.3759 869.689 102.816C866.038 119.221 861.67 135.496 857.057 151.654C851.344 171.662 865.75 157.062 875.116 149.973C893.796 135.835 911.958 121.06 931.64 108.301C939.426 103.254 950 94.5716 959.217 92.099C963.435 90.9672 954.504 117.769 954.029 119.231C945.649 145.011 932.439 174.547 932.783 202.072C932.867 208.819 937.63 199.142 938.279 198.178C945.612 187.295 953.19 176.617 961.203 166.221C978.374 143.943 994.524 120.445 1012.56 98.8794C1020.59 89.2825 1016.37 102.614 1015.64 108.605C1013.92 122.776 1008.64 179.689 1039.06 160.04C1055.7 149.296 1069.29 130.733 1083.16 116.735C1090.61 109.21 1098.67 102.014 1105.64 94.0187C1108.38 90.8737 1104.93 102.349 1104.12 106.444C1100.65 124.244 1095.76 141.694 1091.73 159.363C1089.16 170.586 1085.3 183.89 1086.45 195.609C1087.07 202.041 1099.27 187.083 1099.4 186.948C1126.63 158.582 1152.03 128.04 1185.91 107.044C1194.93 101.458 1184.06 146.673 1183.19 151.044C1182.75 153.271 1174.26 177.351 1183.55 172.061C1201.77 161.691 1217.69 145.733 1233.83 132.552C1246.58 122.136 1259.54 111.425 1274.13 103.606C1280.65 100.109 1281.16 102.421 1280.36 109.037C1278.27 126.205 1274.99 143.186 1273.17 160.406C1272.89 163.057 1266.69 198.165 1276.41 192.205C1290.35 183.651 1302.43 170.302 1314.74 159.694C1332.02 144.802 1349.83 130.635 1368.08 116.944C1377.92 109.555 1387.94 101.262 1398.77 95.2803C1405.81 91.3891 1402.04 107.978 1401.87 109.911C1400.14 129.778 1397.36 149.535 1395.85 169.424C1394.86 182.468 1395.15 190.877 1410.82 190.611C1429.89 190.286 1441.7 176.76 1454.35 164.377C1469.33 149.716 1483.68 134.557 1498.4 119.671C1505.42 112.579 1505.44 116.351 1503.67 124.194C1499.36 143.305 1493.38 162.007 1489.17 181.145C1485.78 196.527 1481.54 211.934 1499.08 192.779C1518.56 171.493 1537.47 149.403 1555.86 127.153C1558.47 123.985 1561.48 116.816 1561.37 123.726C1561.17 135.869 1558.51 147.815 1557.02 159.828C1556.43 164.542 1548.65 199.145 1563.09 192.832C1584.17 183.622 1600.99 160.215 1616.13 143.549C1617.28 142.287 1632.89 124.514 1632.65 128.829C1631.36 152.412 1619.84 174.772 1615.45 197.771C1610.6 223.215 1637.87 178.615 1641.18 174.145C1652.24 159.226 1663.13 144.183 1675.09 129.961C1678.46 125.946 1685.24 112.771 1685.43 123.943C1685.64 136.028 1683.94 148.008 1682.72 160C1681.69 170.023 1677.23 186.918 1681.42 196.717C1687.28 210.414 1730.46 147.307 1734.08 142.188C1736.86 138.251 1745.25 122.434 1751.01 121.499C1754.65 120.908 1749.85 142.079 1749.84 142.091C1745.91 162.128 1743.01 182.312 1740.23 202.524" stroke="#E5E5F0" stroke-width="62" stroke-linecap="round"/>
<path id="pink" d="M20.6874 70.4843C20.12 82.1977 16.4883 93.5871 14.1909 105.013C10.7833 121.959 17.1262 108.829 22.9293 100.092C35.353 81.3873 48.6395 64.1263 64.9258 48.6694C67.885 45.8609 66.4872 54.2945 66.5119 55.1661C67.0699 74.833 66.0929 94.8873 67.7275 114.474C69.5691 136.543 86.9943 113.504 93.4377 106.619C104.895 94.3754 115.882 81.6018 126.111 68.3107C139.582 50.8067 124.506 95.7182 123.497 99.6916C119.333 116.079 116.237 132.398 115.676 149.327C115.49 154.968 114.608 161.278 120.511 155.03C140.27 134.117 157.887 111.225 176.35 89.197C179.714 85.1837 185.637 72.0659 186.524 77.2267C187.63 83.6607 185.156 90.2138 184.272 96.6821C183.21 104.459 178.776 135.621 177.893 143.589C175.581 164.456 178.874 158.226 188.778 148.421C201.575 135.749 214.232 122.948 226.943 110.19C236.338 100.761 245.605 90.8719 255.582 82.0426C260.422 77.7593 263.056 77.6936 261.504 84.9118C258.55 98.6504 254.202 112.03 251.451 125.849C250.635 129.951 241.188 170.141 251.854 164.737C260.866 160.172 360.349 83.6105 361.021 84.5412C365.324 90.4983 360.065 99.2521 358.605 106.454C356.873 115.001 353.277 130.648 351.369 139.602C349.912 146.435 347.138 155.171 347.342 162.378C347.352 162.701 355.732 152.912 355.832 152.792C364.402 142.478 372.38 131.717 380.753 121.246C389.031 110.894 397.536 100.696 406.408 90.8464C412.276 84.3309 415.396 82.0843 413.12 92.7586C407.32 119.97 396.123 146.903 394.189 174.833C393.67 182.327 397.385 180.48 401.952 176.716C413.343 167.326 423.78 156.675 434.987 147.042C448.032 135.828 460.816 124.351 473.738 113C475.257 111.665 495.742 90.0519 496.318 101.846C496.98 115.417 493.419 130.525 491.2 143.811C490.734 146.603 482.059 182.079 490.2 174.445C499.748 165.493 506.863 153.478 515.255 143.479C526.725 129.814 539.016 116.847 550.799 103.454C553.18 100.749 563.323 85.4594 568.275 85.319C574.685 85.1371 566.6 98.0952 564.722 104.227C557.674 127.246 543.442 151.735 541.291 175.916C540.837 181.018 549.887 170.184 553.405 166.461C578.515 139.884 602.636 112.429 628.829 86.8716C636.38 79.5042 645.185 69.3477 642.083 84.6265C639.215 98.7489 634.084 112.391 630.416 126.31C626.889 139.692 622.685 155.033 623.217 169.036C623.688 181.42 644.678 156.147 653.442 147.385C675.948 124.884 697.909 101.855 719.233 78.232C725.812 70.9441 732.347 60.7107 740.055 54.5116C740.87 53.8558 736.961 74.4192 736.889 74.6938C730.668 98.355 721.517 121.11 715.045 144.702C714.471 146.796 707.387 178.096 710.42 175.206C731.929 154.714 748.256 126.615 766.434 103.176C772.853 94.9001 779.259 85.2959 786.862 77.9485C793.478 71.5547 788.118 94.2306 787.936 95.2068C782.473 124.439 768.985 154.235 768.262 184.078C768.15 188.702 768.802 186.339 771.05 183.532C783.708 167.726 795.806 151.417 809.431 136.417C813.792 131.616 872.749 72.0515 873.773 73.847C877.067 79.6211 870.9 97.3759 869.689 102.816C866.038 119.221 861.67 135.496 857.057 151.654C851.344 171.662 865.75 157.062 875.116 149.973C893.796 135.835 911.958 121.06 931.64 108.301C939.426 103.254 950 94.5716 959.217 92.099C963.435 90.9672 954.504 117.769 954.029 119.231C945.649 145.011 932.439 174.547 932.783 202.072C932.867 208.819 937.63 199.142 938.279 198.178C945.612 187.295 953.19 176.617 961.203 166.221C978.374 143.943 994.524 120.445 1012.56 98.8794C1020.59 89.2825 1016.37 102.614 1015.64 108.605C1013.92 122.776 1008.64 179.689 1039.06 160.04C1055.7 149.296 1069.29 130.733 1083.16 116.735C1090.61 109.21 1098.67 102.014 1105.64 94.0187C1108.38 90.8737 1104.93 102.349 1104.12 106.444C1100.65 124.244 1095.76 141.694 1091.73 159.363C1089.16 170.586 1085.3 183.89 1086.45 195.609C1087.07 202.041 1099.27 187.083 1099.4 186.948C1126.63 158.582 1152.03 128.04 1185.91 107.044C1194.93 101.458 1184.06 146.673 1183.19 151.044C1182.75 153.271 1174.26 177.351 1183.55 172.061C1201.77 161.691 1217.69 145.733 1233.83 132.552C1246.58 122.136 1259.54 111.425 1274.13 103.606C1280.65 100.109 1281.16 102.421 1280.36 109.037C1278.27 126.205 1274.99 143.186 1273.17 160.406C1272.89 163.057 1266.69 198.165 1276.41 192.205C1290.35 183.651 1302.43 170.302 1314.74 159.694C1332.02 144.802 1349.83 130.635 1368.08 116.944C1377.92 109.555 1387.94 101.262 1398.77 95.2803C1405.81 91.3891 1402.04 107.978 1401.87 109.911C1400.14 129.778 1397.36 149.535 1395.85 169.424C1394.86 182.468 1395.15 190.877 1410.82 190.611C1429.89 190.286 1441.7 176.76 1454.35 164.377C1469.33 149.716 1483.68 134.557 1498.4 119.671C1505.42 112.579 1505.44 116.351 1503.67 124.194C1499.36 143.305 1493.38 162.007 1489.17 181.145C1485.78 196.527 1481.54 211.934 1499.08 192.779C1518.56 171.493 1537.47 149.403 1555.86 127.153C1558.47 123.985 1561.48 116.816 1561.37 123.726C1561.17 135.869 1558.51 147.815 1557.02 159.828C1556.43 164.542 1548.65 199.145 1563.09 192.832C1584.17 183.622 1600.99 160.215 1616.13 143.549C1617.28 142.287 1632.89 124.514 1632.65 128.829C1631.36 152.412 1619.84 174.772 1615.45 197.771C1610.6 223.215 1637.87 178.615 1641.18 174.145C1652.24 159.226 1663.13 144.183 1675.09 129.961C1678.46 125.946 1685.24 112.771 1685.43 123.943C1685.64 136.028 1683.94 148.008 1682.72 160C1681.69 170.023 1677.23 186.918 1681.42 196.717C1687.28 210.414 1730.46 147.307 1734.08 142.188C1736.86 138.251 1745.25 122.434 1751.01 121.499C1754.65 120.908 1749.85 142.079 1749.84 142.091C1745.91 162.128 1743.01 182.312 1740.23 202.524" stroke="#EB7491" stroke-width="48" stroke-linecap="round"/>
</g>
</svg>
